<?xml version="1.0" encoding="utf-8" standalone="no"?>
<!DOCTYPE svg PUBLIC "-//W3C//DTD SVG 1.1//EN"
  "http://www.w3.org/Graphics/SVG/1.1/DTD/svg11.dtd">
<svg xmlns:xlink="http://www.w3.org/1999/xlink" width="460.8pt" height="345.6pt" viewBox="0 0 460.8 345.6" xmlns="http://www.w3.org/2000/svg" version="1.1">
 <metadata>
  <rdf:RDF xmlns:dc="http://purl.org/dc/elements/1.1/" xmlns:cc="http://creativecommons.org/ns#" xmlns:rdf="http://www.w3.org/1999/02/22-rdf-syntax-ns#">
   <cc:Work>
    <dc:type rdf:resource="http://purl.org/dc/dcmitype/StillImage"/>
    <dc:date>2021-12-06T13:27:32.066723</dc:date>
    <dc:format>image/svg+xml</dc:format>
    <dc:creator>
     <cc:Agent>
      <dc:title>Matplotlib v3.5.0, https://matplotlib.org/</dc:title>
     </cc:Agent>
    </dc:creator>
   </cc:Work>
  </rdf:RDF>
 </metadata>
 <defs>
  <style type="text/css">*{stroke-linejoin: round; stroke-linecap: butt}</style>
 </defs>
 <g id="figure_1">
  <g id="patch_1">
   <path d="M 0 345.6 
L 460.8 345.6 
L 460.8 0 
L 0 0 
z
" style="fill: #ffffff"/>
  </g>
  <g id="axes_1">
   <g id="patch_2">
    <path d="M 57.6 307.584 
L 414.72 307.584 
L 414.72 41.472 
L 57.6 41.472 
z
" style="fill: #ffffff"/>
   </g>
   <g id="PathCollection_1">
    <defs>
     <path id="me3280b946b" d="M 0 3 
C 0.795609 3 1.55874 2.683901 2.12132 2.12132 
C 2.683901 1.55874 3 0.795609 3 0 
C 3 -0.795609 2.683901 -1.55874 2.12132 -2.12132 
C 1.55874 -2.683901 0.795609 -3 0 -3 
C -0.795609 -3 -1.55874 -2.683901 -2.12132 -2.12132 
C -2.683901 -1.55874 -3 -0.795609 -3 0 
C -3 0.795609 -2.683901 1.55874 -2.12132 2.12132 
C -1.55874 2.683901 -0.795609 3 0 3 
z
" style="stroke: #ff0000"/>
    </defs>
    <g clip-path="url(#p3221c52df7)">
     <use xlink:href="#me3280b946b" x="380.762381" y="68.666067" style="fill: #ff0000; stroke: #ff0000"/>
     <use xlink:href="#me3280b946b" x="338.129525" y="125.215735" style="fill: #ff0000; stroke: #ff0000"/>
     <use xlink:href="#me3280b946b" x="332.656867" y="132.788478" style="fill: #ff0000; stroke: #ff0000"/>
     <use xlink:href="#me3280b946b" x="350.18197" y="96.714103" style="fill: #ff0000; stroke: #ff0000"/>
     <use xlink:href="#me3280b946b" x="316.701962" y="139.553786" style="fill: #ff0000; stroke: #ff0000"/>
     <use xlink:href="#me3280b946b" x="338.398321" y="136.359396" style="fill: #ff0000; stroke: #ff0000"/>
     <use xlink:href="#me3280b946b" x="274.883832" y="161.377667" style="fill: #ff0000; stroke: #ff0000"/>
     <use xlink:href="#me3280b946b" x="321.323487" y="126.821613" style="fill: #ff0000; stroke: #ff0000"/>
     <use xlink:href="#me3280b946b" x="335.942702" y="106.310329" style="fill: #ff0000; stroke: #ff0000"/>
     <use xlink:href="#me3280b946b" x="383.698997" y="86.012056" style="fill: #ff0000; stroke: #ff0000"/>
     <use xlink:href="#me3280b946b" x="304.701476" y="120.232284" style="fill: #ff0000; stroke: #ff0000"/>
     <use xlink:href="#me3280b946b" x="320.594226" y="137.80953" style="fill: #ff0000; stroke: #ff0000"/>
     <use xlink:href="#me3280b946b" x="292.954866" y="138.088102" style="fill: #ff0000; stroke: #ff0000"/>
     <use xlink:href="#me3280b946b" x="361.326962" y="86.478099" style="fill: #ff0000; stroke: #ff0000"/>
     <use xlink:href="#me3280b946b" x="278.05988" y="150.199425" style="fill: #ff0000; stroke: #ff0000"/>
     <use xlink:href="#me3280b946b" x="366.078908" y="69.442088" style="fill: #ff0000; stroke: #ff0000"/>
     <use xlink:href="#me3280b946b" x="389.743488" y="80.04459" style="fill: #ff0000; stroke: #ff0000"/>
     <use xlink:href="#me3280b946b" x="382.561064" y="73.786709" style="fill: #ff0000; stroke: #ff0000"/>
     <use xlink:href="#me3280b946b" x="318.534603" y="109.59797" style="fill: #ff0000; stroke: #ff0000"/>
     <use xlink:href="#me3280b946b" x="333.363658" y="123.637115" style="fill: #ff0000; stroke: #ff0000"/>
     <use xlink:href="#me3280b946b" x="298.694457" y="127.451706" style="fill: #ff0000; stroke: #ff0000"/>
     <use xlink:href="#me3280b946b" x="316.136931" y="136.389685" style="fill: #ff0000; stroke: #ff0000"/>
     <use xlink:href="#me3280b946b" x="380.653443" y="53.568" style="fill: #ff0000; stroke: #ff0000"/>
     <use xlink:href="#me3280b946b" x="262.217319" y="158.091023" style="fill: #ff0000; stroke: #ff0000"/>
     <use xlink:href="#me3280b946b" x="292.657652" y="134.738505" style="fill: #ff0000; stroke: #ff0000"/>
     <use xlink:href="#me3280b946b" x="289.640032" y="141.595149" style="fill: #ff0000; stroke: #ff0000"/>
     <use xlink:href="#me3280b946b" x="320.72993" y="108.961648" style="fill: #ff0000; stroke: #ff0000"/>
     <use xlink:href="#me3280b946b" x="275.087294" y="145.941024" style="fill: #ff0000; stroke: #ff0000"/>
     <use xlink:href="#me3280b946b" x="389.408906" y="89.878375" style="fill: #ff0000; stroke: #ff0000"/>
     <use xlink:href="#me3280b946b" x="366.619658" y="76.906778" style="fill: #ff0000; stroke: #ff0000"/>
     <use xlink:href="#me3280b946b" x="398.332704" y="66.478155" style="fill: #ff0000; stroke: #ff0000"/>
     <use xlink:href="#me3280b946b" x="398.487273" y="72.069295" style="fill: #ff0000; stroke: #ff0000"/>
     <use xlink:href="#me3280b946b" x="267.307696" y="160.191032" style="fill: #ff0000; stroke: #ff0000"/>
     <use xlink:href="#me3280b946b" x="260.344716" y="154.118997" style="fill: #ff0000; stroke: #ff0000"/>
     <use xlink:href="#me3280b946b" x="365.624214" y="75.653113" style="fill: #ff0000; stroke: #ff0000"/>
     <use xlink:href="#me3280b946b" x="324.415938" y="139.247069" style="fill: #ff0000; stroke: #ff0000"/>
     <use xlink:href="#me3280b946b" x="357.654797" y="71.425052" style="fill: #ff0000; stroke: #ff0000"/>
     <use xlink:href="#me3280b946b" x="344.620355" y="115.729478" style="fill: #ff0000; stroke: #ff0000"/>
     <use xlink:href="#me3280b946b" x="387.214721" y="63.262734" style="fill: #ff0000; stroke: #ff0000"/>
     <use xlink:href="#me3280b946b" x="313.990728" y="118.259782" style="fill: #ff0000; stroke: #ff0000"/>
     <use xlink:href="#me3280b946b" x="269.219549" y="156.301948" style="fill: #ff0000; stroke: #ff0000"/>
     <use xlink:href="#me3280b946b" x="267.929372" y="166.04364" style="fill: #ff0000; stroke: #ff0000"/>
     <use xlink:href="#me3280b946b" x="313.854401" y="117.240242" style="fill: #ff0000; stroke: #ff0000"/>
     <use xlink:href="#me3280b946b" x="392.667305" y="77.97251" style="fill: #ff0000; stroke: #ff0000"/>
     <use xlink:href="#me3280b946b" x="254.377086" y="169.097554" style="fill: #ff0000; stroke: #ff0000"/>
     <use xlink:href="#me3280b946b" x="260.272869" y="169.358389" style="fill: #ff0000; stroke: #ff0000"/>
     <use xlink:href="#me3280b946b" x="264.910121" y="152.072677" style="fill: #ff0000; stroke: #ff0000"/>
     <use xlink:href="#me3280b946b" x="289.529661" y="125.308154" style="fill: #ff0000; stroke: #ff0000"/>
     <use xlink:href="#me3280b946b" x="323.285582" y="118.121855" style="fill: #ff0000; stroke: #ff0000"/>
     <use xlink:href="#me3280b946b" x="301.683886" y="154.700544" style="fill: #ff0000; stroke: #ff0000"/>
     <use xlink:href="#me3280b946b" x="309.332405" y="146.549264" style="fill: #ff0000; stroke: #ff0000"/>
     <use xlink:href="#me3280b946b" x="323.54717" y="113.773641" style="fill: #ff0000; stroke: #ff0000"/>
     <use xlink:href="#me3280b946b" x="360.672572" y="84.834551" style="fill: #ff0000; stroke: #ff0000"/>
     <use xlink:href="#me3280b946b" x="335.642016" y="117.569798" style="fill: #ff0000; stroke: #ff0000"/>
     <use xlink:href="#me3280b946b" x="390.621536" y="89.318326" style="fill: #ff0000; stroke: #ff0000"/>
     <use xlink:href="#me3280b946b" x="280.693524" y="152.976056" style="fill: #ff0000; stroke: #ff0000"/>
     <use xlink:href="#me3280b946b" x="296.933468" y="148.246719" style="fill: #ff0000; stroke: #ff0000"/>
     <use xlink:href="#me3280b946b" x="326.167925" y="114.98197" style="fill: #ff0000; stroke: #ff0000"/>
     <use xlink:href="#me3280b946b" x="260.091665" y="163.528203" style="fill: #ff0000; stroke: #ff0000"/>
     <use xlink:href="#me3280b946b" x="346.374034" y="108.980079" style="fill: #ff0000; stroke: #ff0000"/>
     <use xlink:href="#me3280b946b" x="379.895763" y="61.121655" style="fill: #ff0000; stroke: #ff0000"/>
     <use xlink:href="#me3280b946b" x="367.128584" y="87.48595" style="fill: #ff0000; stroke: #ff0000"/>
     <use xlink:href="#me3280b946b" x="315.28034" y="112.076542" style="fill: #ff0000; stroke: #ff0000"/>
     <use xlink:href="#me3280b946b" x="273.799333" y="159.456677" style="fill: #ff0000; stroke: #ff0000"/>
     <use xlink:href="#me3280b946b" x="373.717796" y="72.422885" style="fill: #ff0000; stroke: #ff0000"/>
     <use xlink:href="#me3280b946b" x="283.346956" y="158.025844" style="fill: #ff0000; stroke: #ff0000"/>
     <use xlink:href="#me3280b946b" x="365.096973" y="71.877642" style="fill: #ff0000; stroke: #ff0000"/>
     <use xlink:href="#me3280b946b" x="382.973831" y="61.204092" style="fill: #ff0000; stroke: #ff0000"/>
     <use xlink:href="#me3280b946b" x="346.118542" y="105.00968" style="fill: #ff0000; stroke: #ff0000"/>
     <use xlink:href="#me3280b946b" x="266.728688" y="163.18057" style="fill: #ff0000; stroke: #ff0000"/>
     <use xlink:href="#me3280b946b" x="318.131523" y="134.194647" style="fill: #ff0000; stroke: #ff0000"/>
     <use xlink:href="#me3280b946b" x="367.609165" y="80.159322" style="fill: #ff0000; stroke: #ff0000"/>
     <use xlink:href="#me3280b946b" x="376.064482" y="74.97371" style="fill: #ff0000; stroke: #ff0000"/>
     <use xlink:href="#me3280b946b" x="368.32785" y="87.013529" style="fill: #ff0000; stroke: #ff0000"/>
     <use xlink:href="#me3280b946b" x="362.047097" y="91.954166" style="fill: #ff0000; stroke: #ff0000"/>
     <use xlink:href="#me3280b946b" x="373.362461" y="55.457979" style="fill: #ff0000; stroke: #ff0000"/>
     <use xlink:href="#me3280b946b" x="378.103542" y="86.558525" style="fill: #ff0000; stroke: #ff0000"/>
     <use xlink:href="#me3280b946b" x="389.622903" y="55.260889" style="fill: #ff0000; stroke: #ff0000"/>
     <use xlink:href="#me3280b946b" x="390.945274" y="65.467858" style="fill: #ff0000; stroke: #ff0000"/>
     <use xlink:href="#me3280b946b" x="393.210277" y="84.751355" style="fill: #ff0000; stroke: #ff0000"/>
     <use xlink:href="#me3280b946b" x="339.39145" y="112.967351" style="fill: #ff0000; stroke: #ff0000"/>
     <use xlink:href="#me3280b946b" x="244.32236" y="177.934891" style="fill: #ff0000; stroke: #ff0000"/>
     <use xlink:href="#me3280b946b" x="279.74726" y="155.485338" style="fill: #ff0000; stroke: #ff0000"/>
     <use xlink:href="#me3280b946b" x="375.440423" y="86.769353" style="fill: #ff0000; stroke: #ff0000"/>
     <use xlink:href="#me3280b946b" x="342.447015" y="76.172438" style="fill: #ff0000; stroke: #ff0000"/>
     <use xlink:href="#me3280b946b" x="339.543241" y="126.238939" style="fill: #ff0000; stroke: #ff0000"/>
     <use xlink:href="#me3280b946b" x="339.290835" y="137.239149" style="fill: #ff0000; stroke: #ff0000"/>
     <use xlink:href="#me3280b946b" x="331.325431" y="113.018639" style="fill: #ff0000; stroke: #ff0000"/>
     <use xlink:href="#me3280b946b" x="329.956132" y="124.121391" style="fill: #ff0000; stroke: #ff0000"/>
     <use xlink:href="#me3280b946b" x="368.569143" y="92.764802" style="fill: #ff0000; stroke: #ff0000"/>
     <use xlink:href="#me3280b946b" x="354.887607" y="84.817331" style="fill: #ff0000; stroke: #ff0000"/>
     <use xlink:href="#me3280b946b" x="269.623547" y="153.347976" style="fill: #ff0000; stroke: #ff0000"/>
     <use xlink:href="#me3280b946b" x="302.636719" y="117.318089" style="fill: #ff0000; stroke: #ff0000"/>
     <use xlink:href="#me3280b946b" x="348.267436" y="109.377954" style="fill: #ff0000; stroke: #ff0000"/>
     <use xlink:href="#me3280b946b" x="344.456413" y="99.252598" style="fill: #ff0000; stroke: #ff0000"/>
     <use xlink:href="#me3280b946b" x="389.641196" y="75.096767" style="fill: #ff0000; stroke: #ff0000"/>
     <use xlink:href="#me3280b946b" x="277.751683" y="145.243894" style="fill: #ff0000; stroke: #ff0000"/>
     <use xlink:href="#me3280b946b" x="297.889835" y="145.319355" style="fill: #ff0000; stroke: #ff0000"/>
     <use xlink:href="#me3280b946b" x="382.347272" y="76.705874" style="fill: #ff0000; stroke: #ff0000"/>
     <use xlink:href="#me3280b946b" x="340.280518" y="113.708314" style="fill: #ff0000; stroke: #ff0000"/>
    </g>
   </g>
   <g id="PathCollection_2">
    <defs>
     <path id="m7a9ec8036b" d="M -3 3 
L 3 3 
L 3 -3 
L -3 -3 
z
" style="stroke: #008000"/>
    </defs>
    <g clip-path="url(#p3221c52df7)">
     <use xlink:href="#m7a9ec8036b" x="182.561189" y="217.594318" style="fill: #008000; stroke: #008000"/>
     <use xlink:href="#m7a9ec8036b" x="138.790105" y="220.728557" style="fill: #008000; stroke: #008000"/>
     <use xlink:href="#m7a9ec8036b" x="77.434146" y="268.003923" style="fill: #008000; stroke: #008000"/>
     <use xlink:href="#m7a9ec8036b" x="104.684166" y="263.999099" style="fill: #008000; stroke: #008000"/>
     <use xlink:href="#m7a9ec8036b" x="126.10713" y="282.045628" style="fill: #008000; stroke: #008000"/>
     <use xlink:href="#m7a9ec8036b" x="119.548198" y="288.543712" style="fill: #008000; stroke: #008000"/>
     <use xlink:href="#m7a9ec8036b" x="131.257768" y="241.872162" style="fill: #008000; stroke: #008000"/>
     <use xlink:href="#m7a9ec8036b" x="220.909728" y="197.45784" style="fill: #008000; stroke: #008000"/>
     <use xlink:href="#m7a9ec8036b" x="87.692199" y="238.340009" style="fill: #008000; stroke: #008000"/>
     <use xlink:href="#m7a9ec8036b" x="107.781628" y="245.83187" style="fill: #008000; stroke: #008000"/>
     <use xlink:href="#m7a9ec8036b" x="139.993847" y="224.083068" style="fill: #008000; stroke: #008000"/>
     <use xlink:href="#m7a9ec8036b" x="85.110516" y="239.814034" style="fill: #008000; stroke: #008000"/>
     <use xlink:href="#m7a9ec8036b" x="120.740797" y="254.950586" style="fill: #008000; stroke: #008000"/>
     <use xlink:href="#m7a9ec8036b" x="204.435467" y="210.369335" style="fill: #008000; stroke: #008000"/>
     <use xlink:href="#m7a9ec8036b" x="116.896798" y="260.517454" style="fill: #008000; stroke: #008000"/>
     <use xlink:href="#m7a9ec8036b" x="95.659414" y="252.089989" style="fill: #008000; stroke: #008000"/>
     <use xlink:href="#m7a9ec8036b" x="84.755696" y="278.572071" style="fill: #008000; stroke: #008000"/>
     <use xlink:href="#m7a9ec8036b" x="198.153947" y="203.936407" style="fill: #008000; stroke: #008000"/>
     <use xlink:href="#m7a9ec8036b" x="88.893996" y="282.230958" style="fill: #008000; stroke: #008000"/>
     <use xlink:href="#m7a9ec8036b" x="125.038738" y="271.539538" style="fill: #008000; stroke: #008000"/>
     <use xlink:href="#m7a9ec8036b" x="152.86021" y="234.843618" style="fill: #008000; stroke: #008000"/>
     <use xlink:href="#m7a9ec8036b" x="87.363543" y="253.697363" style="fill: #008000; stroke: #008000"/>
     <use xlink:href="#m7a9ec8036b" x="88.235604" y="258.539579" style="fill: #008000; stroke: #008000"/>
     <use xlink:href="#m7a9ec8036b" x="92.271396" y="264.853837" style="fill: #008000; stroke: #008000"/>
     <use xlink:href="#m7a9ec8036b" x="220.263343" y="193.376629" style="fill: #008000; stroke: #008000"/>
     <use xlink:href="#m7a9ec8036b" x="85.899145" y="274.504935" style="fill: #008000; stroke: #008000"/>
     <use xlink:href="#m7a9ec8036b" x="116.253047" y="282.927003" style="fill: #008000; stroke: #008000"/>
     <use xlink:href="#m7a9ec8036b" x="73.832727" y="260.075682" style="fill: #008000; stroke: #008000"/>
     <use xlink:href="#m7a9ec8036b" x="150.767062" y="227.373914" style="fill: #008000; stroke: #008000"/>
     <use xlink:href="#m7a9ec8036b" x="246.479722" y="176.045208" style="fill: #008000; stroke: #008000"/>
     <use xlink:href="#m7a9ec8036b" x="131.185993" y="262.233103" style="fill: #008000; stroke: #008000"/>
     <use xlink:href="#m7a9ec8036b" x="110.55243" y="282.023549" style="fill: #008000; stroke: #008000"/>
     <use xlink:href="#m7a9ec8036b" x="165.223177" y="225.20987" style="fill: #008000; stroke: #008000"/>
     <use xlink:href="#m7a9ec8036b" x="215.263603" y="193.469842" style="fill: #008000; stroke: #008000"/>
     <use xlink:href="#m7a9ec8036b" x="124.573982" y="290.102663" style="fill: #008000; stroke: #008000"/>
     <use xlink:href="#m7a9ec8036b" x="84.678849" y="252.212263" style="fill: #008000; stroke: #008000"/>
     <use xlink:href="#m7a9ec8036b" x="122.236669" y="244.697262" style="fill: #008000; stroke: #008000"/>
     <use xlink:href="#m7a9ec8036b" x="157.814301" y="224.214842" style="fill: #008000; stroke: #008000"/>
     <use xlink:href="#m7a9ec8036b" x="108.579496" y="262.288483" style="fill: #008000; stroke: #008000"/>
     <use xlink:href="#m7a9ec8036b" x="127.763117" y="220.182792" style="fill: #008000; stroke: #008000"/>
     <use xlink:href="#m7a9ec8036b" x="183.66376" y="211.145277" style="fill: #008000; stroke: #008000"/>
     <use xlink:href="#m7a9ec8036b" x="196.919175" y="204.469052" style="fill: #008000; stroke: #008000"/>
     <use xlink:href="#m7a9ec8036b" x="157.636757" y="219.680638" style="fill: #008000; stroke: #008000"/>
     <use xlink:href="#m7a9ec8036b" x="118.723003" y="260.500274" style="fill: #008000; stroke: #008000"/>
     <use xlink:href="#m7a9ec8036b" x="134.261005" y="227.629771" style="fill: #008000; stroke: #008000"/>
     <use xlink:href="#m7a9ec8036b" x="91.27232" y="272.758455" style="fill: #008000; stroke: #008000"/>
     <use xlink:href="#m7a9ec8036b" x="82.616813" y="237.428645" style="fill: #008000; stroke: #008000"/>
     <use xlink:href="#m7a9ec8036b" x="125.811275" y="220.825527" style="fill: #008000; stroke: #008000"/>
     <use xlink:href="#m7a9ec8036b" x="101.124551" y="280.169957" style="fill: #008000; stroke: #008000"/>
     <use xlink:href="#m7a9ec8036b" x="120.215532" y="243.029376" style="fill: #008000; stroke: #008000"/>
     <use xlink:href="#m7a9ec8036b" x="106.701414" y="270.732345" style="fill: #008000; stroke: #008000"/>
     <use xlink:href="#m7a9ec8036b" x="99.506654" y="274.293957" style="fill: #008000; stroke: #008000"/>
     <use xlink:href="#m7a9ec8036b" x="191.651357" y="216.339974" style="fill: #008000; stroke: #008000"/>
     <use xlink:href="#m7a9ec8036b" x="94.144076" y="285.339972" style="fill: #008000; stroke: #008000"/>
     <use xlink:href="#m7a9ec8036b" x="126.393314" y="247.944721" style="fill: #008000; stroke: #008000"/>
     <use xlink:href="#m7a9ec8036b" x="98.402868" y="248.195802" style="fill: #008000; stroke: #008000"/>
     <use xlink:href="#m7a9ec8036b" x="136.168183" y="219.618307" style="fill: #008000; stroke: #008000"/>
     <use xlink:href="#m7a9ec8036b" x="203.022234" y="202.002755" style="fill: #008000; stroke: #008000"/>
     <use xlink:href="#m7a9ec8036b" x="124.80441" y="295.488" style="fill: #008000; stroke: #008000"/>
     <use xlink:href="#m7a9ec8036b" x="96.140273" y="254.929369" style="fill: #008000; stroke: #008000"/>
     <use xlink:href="#m7a9ec8036b" x="88.76875" y="277.905314" style="fill: #008000; stroke: #008000"/>
     <use xlink:href="#m7a9ec8036b" x="116.013472" y="275.278938" style="fill: #008000; stroke: #008000"/>
     <use xlink:href="#m7a9ec8036b" x="220.399521" y="191.198646" style="fill: #008000; stroke: #008000"/>
     <use xlink:href="#m7a9ec8036b" x="129.063676" y="272.497597" style="fill: #008000; stroke: #008000"/>
     <use xlink:href="#m7a9ec8036b" x="136.201601" y="241.188331" style="fill: #008000; stroke: #008000"/>
     <use xlink:href="#m7a9ec8036b" x="99.168367" y="289.710383" style="fill: #008000; stroke: #008000"/>
     <use xlink:href="#m7a9ec8036b" x="142.800207" y="235.409935" style="fill: #008000; stroke: #008000"/>
     <use xlink:href="#m7a9ec8036b" x="189.718848" y="213.817756" style="fill: #008000; stroke: #008000"/>
     <use xlink:href="#m7a9ec8036b" x="96.341687" y="266.643439" style="fill: #008000; stroke: #008000"/>
     <use xlink:href="#m7a9ec8036b" x="148.011415" y="245.270238" style="fill: #008000; stroke: #008000"/>
     <use xlink:href="#m7a9ec8036b" x="113.416345" y="277.97501" style="fill: #008000; stroke: #008000"/>
     <use xlink:href="#m7a9ec8036b" x="185.079292" y="214.534877" style="fill: #008000; stroke: #008000"/>
     <use xlink:href="#m7a9ec8036b" x="139.82083" y="234.224615" style="fill: #008000; stroke: #008000"/>
     <use xlink:href="#m7a9ec8036b" x="203.226159" y="211.61517" style="fill: #008000; stroke: #008000"/>
     <use xlink:href="#m7a9ec8036b" x="208.13966" y="200.24237" style="fill: #008000; stroke: #008000"/>
     <use xlink:href="#m7a9ec8036b" x="193.553545" y="210.960366" style="fill: #008000; stroke: #008000"/>
     <use xlink:href="#m7a9ec8036b" x="229.103094" y="188.116426" style="fill: #008000; stroke: #008000"/>
     <use xlink:href="#m7a9ec8036b" x="149.32287" y="228.593729" style="fill: #008000; stroke: #008000"/>
     <use xlink:href="#m7a9ec8036b" x="117.37206" y="275.856943" style="fill: #008000; stroke: #008000"/>
     <use xlink:href="#m7a9ec8036b" x="211.01653" y="195.7523" style="fill: #008000; stroke: #008000"/>
     <use xlink:href="#m7a9ec8036b" x="193.754599" y="206.483069" style="fill: #008000; stroke: #008000"/>
     <use xlink:href="#m7a9ec8036b" x="225.236854" y="196.25825" style="fill: #008000; stroke: #008000"/>
     <use xlink:href="#m7a9ec8036b" x="234.505634" y="184.190206" style="fill: #008000; stroke: #008000"/>
     <use xlink:href="#m7a9ec8036b" x="89.945751" y="257.541872" style="fill: #008000; stroke: #008000"/>
     <use xlink:href="#m7a9ec8036b" x="217.996341" y="199.175507" style="fill: #008000; stroke: #008000"/>
     <use xlink:href="#m7a9ec8036b" x="138.893158" y="222.328223" style="fill: #008000; stroke: #008000"/>
     <use xlink:href="#m7a9ec8036b" x="102.149154" y="277.439437" style="fill: #008000; stroke: #008000"/>
     <use xlink:href="#m7a9ec8036b" x="158.996209" y="233.364286" style="fill: #008000; stroke: #008000"/>
     <use xlink:href="#m7a9ec8036b" x="128.290789" y="256.574341" style="fill: #008000; stroke: #008000"/>
     <use xlink:href="#m7a9ec8036b" x="107.229056" y="285.533381" style="fill: #008000; stroke: #008000"/>
     <use xlink:href="#m7a9ec8036b" x="91.158217" y="254.694618" style="fill: #008000; stroke: #008000"/>
     <use xlink:href="#m7a9ec8036b" x="99.747093" y="282.213453" style="fill: #008000; stroke: #008000"/>
     <use xlink:href="#m7a9ec8036b" x="201.238661" y="207.274969" style="fill: #008000; stroke: #008000"/>
     <use xlink:href="#m7a9ec8036b" x="103.935335" y="249.719224" style="fill: #008000; stroke: #008000"/>
     <use xlink:href="#m7a9ec8036b" x="114.160505" y="267.112465" style="fill: #008000; stroke: #008000"/>
     <use xlink:href="#m7a9ec8036b" x="212.751136" y="203.401066" style="fill: #008000; stroke: #008000"/>
     <use xlink:href="#m7a9ec8036b" x="196.348274" y="207.937987" style="fill: #008000; stroke: #008000"/>
     <use xlink:href="#m7a9ec8036b" x="115.550053" y="266.471119" style="fill: #008000; stroke: #008000"/>
     <use xlink:href="#m7a9ec8036b" x="81.323508" y="264.78502" style="fill: #008000; stroke: #008000"/>
     <use xlink:href="#m7a9ec8036b" x="241.086993" y="179.666735" style="fill: #008000; stroke: #008000"/>
    </g>
   </g>
   <g id="matplotlib.axis_1">
    <g id="xtick_1">
     <g id="line2d_1">
      <defs>
       <path id="m9a9efcce26" d="M 0 0 
L 0 3.5 
" style="stroke: #000000; stroke-width: 0.8"/>
      </defs>
      <g>
       <use xlink:href="#m9a9efcce26" x="89.50292" y="307.584" style="stroke: #000000; stroke-width: 0.8"/>
      </g>
     </g>
     <g id="text_1">
      <!-- −15 -->
      <g transform="translate(78.950576 322.182437)scale(0.1 -0.1)">
       <defs>
        <path id="DejaVuSans-2212" d="M 678 2272 
L 4684 2272 
L 4684 1741 
L 678 1741 
L 678 2272 
z
" transform="scale(0.015625)"/>
        <path id="DejaVuSans-31" d="M 794 531 
L 1825 531 
L 1825 4091 
L 703 3866 
L 703 4441 
L 1819 4666 
L 2450 4666 
L 2450 531 
L 3481 531 
L 3481 0 
L 794 0 
L 794 531 
z
" transform="scale(0.015625)"/>
        <path id="DejaVuSans-35" d="M 691 4666 
L 3169 4666 
L 3169 4134 
L 1269 4134 
L 1269 2991 
Q 1406 3038 1543 3061 
Q 1681 3084 1819 3084 
Q 2600 3084 3056 2656 
Q 3513 2228 3513 1497 
Q 3513 744 3044 326 
Q 2575 -91 1722 -91 
Q 1428 -91 1123 -41 
Q 819 9 494 109 
L 494 744 
Q 775 591 1075 516 
Q 1375 441 1709 441 
Q 2250 441 2565 725 
Q 2881 1009 2881 1497 
Q 2881 1984 2565 2268 
Q 2250 2553 1709 2553 
Q 1456 2553 1204 2497 
Q 953 2441 691 2322 
L 691 4666 
z
" transform="scale(0.015625)"/>
       </defs>
       <use xlink:href="#DejaVuSans-2212"/>
       <use xlink:href="#DejaVuSans-31" x="83.789062"/>
       <use xlink:href="#DejaVuSans-35" x="147.412109"/>
      </g>
     </g>
    </g>
    <g id="xtick_2">
     <g id="line2d_2">
      <g>
       <use xlink:href="#m9a9efcce26" x="143.446005" y="307.584" style="stroke: #000000; stroke-width: 0.8"/>
      </g>
     </g>
     <g id="text_2">
      <!-- −10 -->
      <g transform="translate(132.893662 322.182437)scale(0.1 -0.1)">
       <defs>
        <path id="DejaVuSans-30" d="M 2034 4250 
Q 1547 4250 1301 3770 
Q 1056 3291 1056 2328 
Q 1056 1369 1301 889 
Q 1547 409 2034 409 
Q 2525 409 2770 889 
Q 3016 1369 3016 2328 
Q 3016 3291 2770 3770 
Q 2525 4250 2034 4250 
z
M 2034 4750 
Q 2819 4750 3233 4129 
Q 3647 3509 3647 2328 
Q 3647 1150 3233 529 
Q 2819 -91 2034 -91 
Q 1250 -91 836 529 
Q 422 1150 422 2328 
Q 422 3509 836 4129 
Q 1250 4750 2034 4750 
z
" transform="scale(0.015625)"/>
       </defs>
       <use xlink:href="#DejaVuSans-2212"/>
       <use xlink:href="#DejaVuSans-31" x="83.789062"/>
       <use xlink:href="#DejaVuSans-30" x="147.412109"/>
      </g>
     </g>
    </g>
    <g id="xtick_3">
     <g id="line2d_3">
      <g>
       <use xlink:href="#m9a9efcce26" x="197.389091" y="307.584" style="stroke: #000000; stroke-width: 0.8"/>
      </g>
     </g>
     <g id="text_3">
      <!-- −5 -->
      <g transform="translate(190.017998 322.182437)scale(0.1 -0.1)">
       <use xlink:href="#DejaVuSans-2212"/>
       <use xlink:href="#DejaVuSans-35" x="83.789062"/>
      </g>
     </g>
    </g>
    <g id="xtick_4">
     <g id="line2d_4">
      <g>
       <use xlink:href="#m9a9efcce26" x="251.332177" y="307.584" style="stroke: #000000; stroke-width: 0.8"/>
      </g>
     </g>
     <g id="text_4">
      <!-- 0 -->
      <g transform="translate(248.150927 322.182437)scale(0.1 -0.1)">
       <use xlink:href="#DejaVuSans-30"/>
      </g>
     </g>
    </g>
    <g id="xtick_5">
     <g id="line2d_5">
      <g>
       <use xlink:href="#m9a9efcce26" x="305.275263" y="307.584" style="stroke: #000000; stroke-width: 0.8"/>
      </g>
     </g>
     <g id="text_5">
      <!-- 5 -->
      <g transform="translate(302.094013 322.182437)scale(0.1 -0.1)">
       <use xlink:href="#DejaVuSans-35"/>
      </g>
     </g>
    </g>
    <g id="xtick_6">
     <g id="line2d_6">
      <g>
       <use xlink:href="#m9a9efcce26" x="359.218349" y="307.584" style="stroke: #000000; stroke-width: 0.8"/>
      </g>
     </g>
     <g id="text_6">
      <!-- 10 -->
      <g transform="translate(352.855849 322.182437)scale(0.1 -0.1)">
       <use xlink:href="#DejaVuSans-31"/>
       <use xlink:href="#DejaVuSans-30" x="63.623047"/>
      </g>
     </g>
    </g>
    <g id="xtick_7">
     <g id="line2d_7">
      <g>
       <use xlink:href="#m9a9efcce26" x="413.161435" y="307.584" style="stroke: #000000; stroke-width: 0.8"/>
      </g>
     </g>
     <g id="text_7">
      <!-- 15 -->
      <g transform="translate(406.798935 322.182437)scale(0.1 -0.1)">
       <use xlink:href="#DejaVuSans-31"/>
       <use xlink:href="#DejaVuSans-35" x="63.623047"/>
      </g>
     </g>
    </g>
   </g>
   <g id="matplotlib.axis_2">
    <g id="ytick_1">
     <g id="line2d_8">
      <defs>
       <path id="m71d61e0529" d="M 0 0 
L -3.5 0 
" style="stroke: #000000; stroke-width: 0.8"/>
      </defs>
      <g>
       <use xlink:href="#m71d61e0529" x="57.6" y="266.893819" style="stroke: #000000; stroke-width: 0.8"/>
      </g>
     </g>
     <g id="text_8">
      <!-- −10 -->
      <g transform="translate(29.495313 270.693037)scale(0.1 -0.1)">
       <use xlink:href="#DejaVuSans-2212"/>
       <use xlink:href="#DejaVuSans-31" x="83.789062"/>
       <use xlink:href="#DejaVuSans-30" x="147.412109"/>
      </g>
     </g>
    </g>
    <g id="ytick_2">
     <g id="line2d_9">
      <g>
       <use xlink:href="#m71d61e0529" x="57.6" y="225.403474" style="stroke: #000000; stroke-width: 0.8"/>
      </g>
     </g>
     <g id="text_9">
      <!-- −5 -->
      <g transform="translate(35.857813 229.202692)scale(0.1 -0.1)">
       <use xlink:href="#DejaVuSans-2212"/>
       <use xlink:href="#DejaVuSans-35" x="83.789062"/>
      </g>
     </g>
    </g>
    <g id="ytick_3">
     <g id="line2d_10">
      <g>
       <use xlink:href="#m71d61e0529" x="57.6" y="183.913128" style="stroke: #000000; stroke-width: 0.8"/>
      </g>
     </g>
     <g id="text_10">
      <!-- 0 -->
      <g transform="translate(44.2375 187.712347)scale(0.1 -0.1)">
       <use xlink:href="#DejaVuSans-30"/>
      </g>
     </g>
    </g>
    <g id="ytick_4">
     <g id="line2d_11">
      <g>
       <use xlink:href="#m71d61e0529" x="57.6" y="142.422783" style="stroke: #000000; stroke-width: 0.8"/>
      </g>
     </g>
     <g id="text_11">
      <!-- 5 -->
      <g transform="translate(44.2375 146.222002)scale(0.1 -0.1)">
       <use xlink:href="#DejaVuSans-35"/>
      </g>
     </g>
    </g>
    <g id="ytick_5">
     <g id="line2d_12">
      <g>
       <use xlink:href="#m71d61e0529" x="57.6" y="100.932438" style="stroke: #000000; stroke-width: 0.8"/>
      </g>
     </g>
     <g id="text_12">
      <!-- 10 -->
      <g transform="translate(37.875 104.731657)scale(0.1 -0.1)">
       <use xlink:href="#DejaVuSans-31"/>
       <use xlink:href="#DejaVuSans-30" x="63.623047"/>
      </g>
     </g>
    </g>
    <g id="ytick_6">
     <g id="line2d_13">
      <g>
       <use xlink:href="#m71d61e0529" x="57.6" y="59.442093" style="stroke: #000000; stroke-width: 0.8"/>
      </g>
     </g>
     <g id="text_13">
      <!-- 15 -->
      <g transform="translate(37.875 63.241311)scale(0.1 -0.1)">
       <use xlink:href="#DejaVuSans-31"/>
       <use xlink:href="#DejaVuSans-35" x="63.623047"/>
      </g>
     </g>
    </g>
   </g>
   <g id="patch_3">
    <path d="M 57.6 307.584 
L 57.6 41.472 
" style="fill: none; stroke: #000000; stroke-width: 0.8; stroke-linejoin: miter; stroke-linecap: square"/>
   </g>
   <g id="patch_4">
    <path d="M 414.72 307.584 
L 414.72 41.472 
" style="fill: none; stroke: #000000; stroke-width: 0.8; stroke-linejoin: miter; stroke-linecap: square"/>
   </g>
   <g id="patch_5">
    <path d="M 57.6 307.584 
L 414.72 307.584 
" style="fill: none; stroke: #000000; stroke-width: 0.8; stroke-linejoin: miter; stroke-linecap: square"/>
   </g>
   <g id="patch_6">
    <path d="M 57.6 41.472 
L 414.72 41.472 
" style="fill: none; stroke: #000000; stroke-width: 0.8; stroke-linejoin: miter; stroke-linecap: square"/>
   </g>
   <g id="legend_1">
    <g id="patch_7">
     <path d="M 64.6 78.82825 
L 125.514062 78.82825 
Q 127.514062 78.82825 127.514062 76.82825 
L 127.514062 48.472 
Q 127.514062 46.472 125.514062 46.472 
L 64.6 46.472 
Q 62.6 46.472 62.6 48.472 
L 62.6 76.82825 
Q 62.6 78.82825 64.6 78.82825 
z
" style="fill: #ffffff; opacity: 0.8; stroke: #cccccc; stroke-linejoin: miter"/>
    </g>
    <g id="PathCollection_3">
     <g>
      <use xlink:href="#me3280b946b" x="76.6" y="55.445437" style="fill: #ff0000; stroke: #ff0000"/>
     </g>
    </g>
    <g id="text_14">
     <!-- Sat -->
     <g transform="translate(94.6 58.070437)scale(0.1 -0.1)">
      <defs>
       <path id="DejaVuSans-53" d="M 3425 4513 
L 3425 3897 
Q 3066 4069 2747 4153 
Q 2428 4238 2131 4238 
Q 1616 4238 1336 4038 
Q 1056 3838 1056 3469 
Q 1056 3159 1242 3001 
Q 1428 2844 1947 2747 
L 2328 2669 
Q 3034 2534 3370 2195 
Q 3706 1856 3706 1288 
Q 3706 609 3251 259 
Q 2797 -91 1919 -91 
Q 1588 -91 1214 -16 
Q 841 59 441 206 
L 441 856 
Q 825 641 1194 531 
Q 1563 422 1919 422 
Q 2459 422 2753 634 
Q 3047 847 3047 1241 
Q 3047 1584 2836 1778 
Q 2625 1972 2144 2069 
L 1759 2144 
Q 1053 2284 737 2584 
Q 422 2884 422 3419 
Q 422 4038 858 4394 
Q 1294 4750 2059 4750 
Q 2388 4750 2728 4690 
Q 3069 4631 3425 4513 
z
" transform="scale(0.015625)"/>
       <path id="DejaVuSans-61" d="M 2194 1759 
Q 1497 1759 1228 1600 
Q 959 1441 959 1056 
Q 959 750 1161 570 
Q 1363 391 1709 391 
Q 2188 391 2477 730 
Q 2766 1069 2766 1631 
L 2766 1759 
L 2194 1759 
z
M 3341 1997 
L 3341 0 
L 2766 0 
L 2766 531 
Q 2569 213 2275 61 
Q 1981 -91 1556 -91 
Q 1019 -91 701 211 
Q 384 513 384 1019 
Q 384 1609 779 1909 
Q 1175 2209 1959 2209 
L 2766 2209 
L 2766 2266 
Q 2766 2663 2505 2880 
Q 2244 3097 1772 3097 
Q 1472 3097 1187 3025 
Q 903 2953 641 2809 
L 641 3341 
Q 956 3463 1253 3523 
Q 1550 3584 1831 3584 
Q 2591 3584 2966 3190 
Q 3341 2797 3341 1997 
z
" transform="scale(0.015625)"/>
       <path id="DejaVuSans-74" d="M 1172 4494 
L 1172 3500 
L 2356 3500 
L 2356 3053 
L 1172 3053 
L 1172 1153 
Q 1172 725 1289 603 
Q 1406 481 1766 481 
L 2356 481 
L 2356 0 
L 1766 0 
Q 1100 0 847 248 
Q 594 497 594 1153 
L 594 3053 
L 172 3053 
L 172 3500 
L 594 3500 
L 594 4494 
L 1172 4494 
z
" transform="scale(0.015625)"/>
      </defs>
      <use xlink:href="#DejaVuSans-53"/>
      <use xlink:href="#DejaVuSans-61" x="63.476562"/>
      <use xlink:href="#DejaVuSans-74" x="124.755859"/>
     </g>
    </g>
    <g id="PathCollection_4">
     <g>
      <use xlink:href="#m7a9ec8036b" x="76.6" y="70.123562" style="fill: #008000; stroke: #008000"/>
     </g>
    </g>
    <g id="text_15">
     <!-- Unsat -->
     <g transform="translate(94.6 72.748562)scale(0.1 -0.1)">
      <defs>
       <path id="DejaVuSans-55" d="M 556 4666 
L 1191 4666 
L 1191 1831 
Q 1191 1081 1462 751 
Q 1734 422 2344 422 
Q 2950 422 3222 751 
Q 3494 1081 3494 1831 
L 3494 4666 
L 4128 4666 
L 4128 1753 
Q 4128 841 3676 375 
Q 3225 -91 2344 -91 
Q 1459 -91 1007 375 
Q 556 841 556 1753 
L 556 4666 
z
" transform="scale(0.015625)"/>
       <path id="DejaVuSans-6e" d="M 3513 2113 
L 3513 0 
L 2938 0 
L 2938 2094 
Q 2938 2591 2744 2837 
Q 2550 3084 2163 3084 
Q 1697 3084 1428 2787 
Q 1159 2491 1159 1978 
L 1159 0 
L 581 0 
L 581 3500 
L 1159 3500 
L 1159 2956 
Q 1366 3272 1645 3428 
Q 1925 3584 2291 3584 
Q 2894 3584 3203 3211 
Q 3513 2838 3513 2113 
z
" transform="scale(0.015625)"/>
       <path id="DejaVuSans-73" d="M 2834 3397 
L 2834 2853 
Q 2591 2978 2328 3040 
Q 2066 3103 1784 3103 
Q 1356 3103 1142 2972 
Q 928 2841 928 2578 
Q 928 2378 1081 2264 
Q 1234 2150 1697 2047 
L 1894 2003 
Q 2506 1872 2764 1633 
Q 3022 1394 3022 966 
Q 3022 478 2636 193 
Q 2250 -91 1575 -91 
Q 1294 -91 989 -36 
Q 684 19 347 128 
L 347 722 
Q 666 556 975 473 
Q 1284 391 1588 391 
Q 1994 391 2212 530 
Q 2431 669 2431 922 
Q 2431 1156 2273 1281 
Q 2116 1406 1581 1522 
L 1381 1569 
Q 847 1681 609 1914 
Q 372 2147 372 2553 
Q 372 3047 722 3315 
Q 1072 3584 1716 3584 
Q 2034 3584 2315 3537 
Q 2597 3491 2834 3397 
z
" transform="scale(0.015625)"/>
      </defs>
      <use xlink:href="#DejaVuSans-55"/>
      <use xlink:href="#DejaVuSans-6e" x="73.193359"/>
      <use xlink:href="#DejaVuSans-73" x="136.572266"/>
      <use xlink:href="#DejaVuSans-61" x="188.671875"/>
      <use xlink:href="#DejaVuSans-74" x="249.951172"/>
     </g>
    </g>
   </g>
  </g>
 </g>
 <defs>
  <clipPath id="p3221c52df7">
   <rect x="57.6" y="41.472" width="357.12" height="266.112"/>
  </clipPath>
 </defs>
</svg>
